<svg width="1451" height="547" fill="none" xmlns="http://www.w3.org/2000/svg"><g opacity=".5" transform="rotate(-65.1 1138.98 390.084)" stroke-width="3"><rect x="1138.98" y="390.084" width="82.611" height="30.843" rx="15.422" stroke="#F25656"/><rect x="1138.98" y="390.084" width="82.611" height="30.843" rx="15.422" stroke="url('#paint0_linear_9456_26')" stroke-opacity=".25"/></g><g opacity=".5" transform="rotate(-65.1 152.992 76.923)" stroke-width="3"><rect x="152.992" y="76.923" width="82.611" height="30.843" rx="15.422" stroke="#F25656"/><rect x="152.992" y="76.923" width="82.611" height="30.843" rx="15.422" stroke="url('#paint1_linear_9456_26')" stroke-opacity=".25"/></g><g opacity=".5" transform="rotate(-65.1 365.992 45.341)" stroke-width="3"><rect x="365.992" y="45.341" width="42.28" height="14.9" rx="7.45" stroke="#FCC304"/><rect x="365.992" y="45.341" width="42.28" height="14.9" rx="7.45" stroke="url('#paint2_linear_9456_26')" stroke-opacity=".25"/></g><g opacity=".5" transform="rotate(-65.1 931.992 482.341)" stroke-width="3"><rect x="931.992" y="482.341" width="42.28" height="14.9" rx="7.45" stroke="#BC04FC"/><rect x="931.992" y="482.341" width="42.28" height="14.9" rx="7.45" stroke="url('#paint3_linear_9456_26')" stroke-opacity=".25"/></g><g opacity=".5" transform="rotate(-65.1 1385.59 282.148)" stroke-width="3"><rect x="1385.59" y="282.148" width="83.406" height="31.158" rx="15.579" stroke="#FCC304"/><rect x="1385.59" y="282.148" width="83.406" height="31.158" rx="15.579" stroke="url('#paint4_linear_9456_26')" stroke-opacity=".25"/></g><g opacity=".5" transform="rotate(-65.1 1258.01 479.275)" stroke-width="5"><rect x="1258.01" y="479.275" width="148.608" height="55.723" rx="27.862" stroke="#56CCF2"/><rect x="1258.01" y="479.275" width="148.608" height="55.723" rx="27.862" stroke="url('#paint5_linear_9456_26')" stroke-opacity=".25"/></g><g opacity=".5" transform="rotate(-65.1 3.476 357.998)" stroke-width="5"><rect x="3.476" y="357.998" width="62.359" height="21.628" rx="10.814" stroke="#56CCF2"/><rect x="3.476" y="357.998" width="62.359" height="21.628" rx="10.814" stroke="url('#paint6_linear_9456_26')" stroke-opacity=".25"/></g><g opacity=".5" transform="rotate(-65.1 1194.23 187.48)" stroke-width="5"><rect x="1194.23" y="187.48" width="138.037" height="51.545" rx="25.772" stroke="#000"/><rect x="1194.23" y="187.48" width="138.037" height="51.545" rx="25.772" stroke="#03D542"/><rect x="1194.23" y="187.48" width="138.037" height="51.545" rx="25.772" stroke="url('#paint7_linear_9456_26')" stroke-opacity=".25"/></g><g opacity=".5" transform="rotate(-65.1 1368.34 84.96)" stroke-width="5"><rect x="1368.34" y="84.961" width="48.687" height="16.223" rx="8.112" stroke="#000"/><rect x="1368.34" y="84.961" width="48.687" height="16.223" rx="8.112" stroke="#BC04FC"/><rect x="1368.34" y="84.961" width="48.687" height="16.223" rx="8.112" stroke="url('#paint8_linear_9456_26')" stroke-opacity=".25"/></g><g opacity=".5" transform="rotate(-65.1 190.32 339.527)" stroke-width="5"><rect x="190.32" y="339.527" width="138.037" height="51.545" rx="25.772" stroke="#000"/><rect x="190.32" y="339.527" width="138.037" height="51.545" rx="25.772" stroke="#03D542"/><rect x="190.32" y="339.527" width="138.037" height="51.545" rx="25.772" stroke="url('#paint9_linear_9456_26')" stroke-opacity=".25"/></g><g opacity=".5" transform="rotate(-65.1 52.742 530.078)" stroke-width="5"><rect x="52.742" y="530.078" width="88.541" height="31.978" rx="15.989" stroke="#000"/><rect x="52.742" y="530.078" width="88.541" height="31.978" rx="15.989" stroke="#BC04FC"/><rect x="52.742" y="530.078" width="88.541" height="31.978" rx="15.989" stroke="url('#paint10_linear_9456_26')" stroke-opacity=".25"/></g><g opacity=".5" transform="rotate(-65.1 402.32 432.853)" stroke-width="5"><rect x="402.32" y="432.853" width="40.278" height="12.899" rx="6.449" stroke="#000"/><rect x="402.32" y="432.853" width="40.278" height="12.899" rx="6.449" stroke="#FCC304"/><rect x="402.32" y="432.853" width="40.278" height="12.899" rx="6.449" stroke="url('#paint11_linear_9456_26')" stroke-opacity=".25"/></g><defs><linearGradient id="paint0_linear_9456_26" x1="1179.79" y1="390.812" x2="1179.79" y2="424.656" gradientUnits="userSpaceOnUse"><stop stop-color="#fff"/><stop offset="1" stop-color="#fff" stop-opacity="0"/></linearGradient><linearGradient id="paint1_linear_9456_26" x1="193.805" y1="77.652" x2="193.805" y2="111.496" gradientUnits="userSpaceOnUse"><stop stop-color="#fff"/><stop offset="1" stop-color="#fff" stop-opacity="0"/></linearGradient><linearGradient id="paint2_linear_9456_26" x1="386.64" y1="46.07" x2="386.64" y2="63.97" gradientUnits="userSpaceOnUse"><stop stop-color="#fff"/><stop offset="1" stop-color="#fff" stop-opacity="0"/></linearGradient><linearGradient id="paint3_linear_9456_26" x1="952.64" y1="483.07" x2="952.64" y2="500.97" gradientUnits="userSpaceOnUse"><stop stop-color="#fff"/><stop offset="1" stop-color="#fff" stop-opacity="0"/></linearGradient><linearGradient id="paint4_linear_9456_26" x1="1426.8" y1="282.877" x2="1426.8" y2="317.035" gradientUnits="userSpaceOnUse"><stop stop-color="#fff"/><stop offset="1" stop-color="#fff" stop-opacity="0"/></linearGradient><linearGradient id="paint5_linear_9456_26" x1="1331.49" y1="480.49" x2="1331.49" y2="541.214" gradientUnits="userSpaceOnUse"><stop stop-color="#fff"/><stop offset="1" stop-color="#fff" stop-opacity="0"/></linearGradient><linearGradient id="paint6_linear_9456_26" x1="33.836" y1="359.213" x2="33.836" y2="385.841" gradientUnits="userSpaceOnUse"><stop stop-color="#fff"/><stop offset="1" stop-color="#fff" stop-opacity="0"/></linearGradient><linearGradient id="paint7_linear_9456_26" x1="1262.43" y1="188.695" x2="1262.43" y2="245.24" gradientUnits="userSpaceOnUse"><stop stop-color="#fff"/><stop offset="1" stop-color="#fff" stop-opacity="0"/></linearGradient><linearGradient id="paint8_linear_9456_26" x1="1391.86" y1="86.176" x2="1391.86" y2="107.399" gradientUnits="userSpaceOnUse"><stop stop-color="#fff"/><stop offset="1" stop-color="#fff" stop-opacity="0"/></linearGradient><linearGradient id="paint9_linear_9456_26" x1="258.519" y1="340.742" x2="258.519" y2="397.287" gradientUnits="userSpaceOnUse"><stop stop-color="#fff"/><stop offset="1" stop-color="#fff" stop-opacity="0"/></linearGradient><linearGradient id="paint10_linear_9456_26" x1="96.192" y1="531.293" x2="96.192" y2="568.271" gradientUnits="userSpaceOnUse"><stop stop-color="#fff"/><stop offset="1" stop-color="#fff" stop-opacity="0"/></linearGradient><linearGradient id="paint11_linear_9456_26" x1="421.639" y1="434.068" x2="421.639" y2="451.967" gradientUnits="userSpaceOnUse"><stop stop-color="#fff"/><stop offset="1" stop-color="#fff" stop-opacity="0"/></linearGradient></defs></svg>